PathFileType	4	(X/Y/Z)	C:\Users\Basilio\Documents\Thesis Gigler\squatting_fais\c3dfiles\019\SLS_back_pre3\markers_experimental.trc
DataRate	CameraRate	NumFrames	NumMarkers	Units	OrigDataRate	OrigDataStartFrame	OrigNumFrames
200.000000	200.000000	4	59	mm	200.000000	194	1552
Frame#	Time	LBHD			RBHD			C7			T10			CLAV			LSHO			LUUPA			LMUPA			LDUPA			LLEP			LMEP			LRAD			LUL			LRFIN			RSHO			RUPA1			RMUPA			RDUPA			RLEP			RMEP			RRAD			RUL			RUFIN			LASI			RASI			USACR			LSACR			RSACR			LTHI1			LTHI2			LTHI3			LTHI4			LLFC			LTIB1			LTIB2			LTIB3			LTIB4			LLMAL			LMMAL			LHEE			LMT2			LMT5			RTHI			RTHI2			RTHI4			RLFC			RTIB1			RTIB2			RTIB3			RTIB4			RLMAL			RMMAL			RHEE			RMT1			RMT2			RMT5			FHD			LMT1			RTHI3			
		X1	Y1	Z1	X2	Y2	Z2	X3	Y3	Z3	X4	Y4	Z4	X5	Y5	Z5	X6	Y6	Z6	X7	Y7	Z7	X8	Y8	Z8	X9	Y9	Z9	X10	Y10	Z10	X11	Y11	Z11	X12	Y12	Z12	X13	Y13	Z13	X14	Y14	Z14	X15	Y15	Z15	X16	Y16	Z16	X17	Y17	Z17	X18	Y18	Z18	X19	Y19	Z19	X20	Y20	Z20	X21	Y21	Z21	X22	Y22	Z22	X23	Y23	Z23	X24	Y24	Z24	X25	Y25	Z25	X26	Y26	Z26	X27	Y27	Z27	X28	Y28	Z28	X29	Y29	Z29	X30	Y30	Z30	X31	Y31	Z31	X32	Y32	Z32	X33	Y33	Z33	X34	Y34	Z34	X35	Y35	Z35	X36	Y36	Z36	X37	Y37	Z37	X38	Y38	Z38	X39	Y39	Z39	X40	Y40	Z40	X41	Y41	Z41	X42	Y42	Z42	X43	Y43	Z43	X44	Y44	Z44	X45	Y45	Z45	X46	Y46	Z46	X47	Y47	Z47	X48	Y48	Z48	X49	Y49	Z49	X50	Y50	Z50	X51	Y51	Z51	X52	Y52	Z52	X53	Y53	Z53	X54	Y54	Z54	X55	Y55	Z55	X56	Y56	Z56	X57	Y57	Z57	X58	Y58	Z58	X59	Y59	Z59	

195	0.97	-413.2598571777345	1681.407958984375	-790.657165527344	-413.8560791015626	1674.005737304688	-650.9984130859376	-438.678924560547	1497.501220703125	-708.0711669921876	-445.3801879882814	1203.1142578125	-717.0856933593751	-299.9237670898438	1459.439819335938	-719.1312866210939	-364.0381164550782	1505.280883789063	-855.8103027343752	-235.1095733642579	1471.491943359375	-916.9525146484377	-207.5323944091797	1471.831909179688	-876.3450317382815	-168.9390411376953	1466.646606445313	-922.7512817382815	-99.48386383056643	1428.4091796875	-952.8300781250002	-100.210563659668	1374.159423828125	-928.1191406250002	144.4711456298828	1472.921264648438	-879.750427246094	148.5562438964844	1425.999267578125	-926.3447875976565	218.5190429687501	1491.908081054688	-887.474792480469	-342.6541137695313	1490.250732421875	-582.4696044921876	-222.0010070800782	1399.756713867188	-494.6841735839845	-191.5764617919922	1434.061157226563	-517.1486206054689	-153.3017883300782	1395.249267578125	-497.4644470214845	-75.35777282714845	1391.855346679688	-509.8757934570314	-87.27136993408205	1339.549926757813	-541.0237426757814	157.4810638427735	1462.59619140625	-577.0549926757814	174.5340423583985	1405.910766601563	-550.4855957031251	240.3171997070313	1477.631225585938	-567.6947631835939	-274.5805053710938	1018.5078125	-850.121765136719	-261.1364135742188	1005.541687011719	-642.1669921875001	-433.6734924316407	1071.917236328125	-731.7324829101564	-438.3479614257814	1040.401489257813	-761.5397949218751	-433.2706909179689	1038.712890625	-704.4846191406251	-251.0289459228516	770.8781738281252	-938.0772094726565	-185.4832763671875	715.7825317382814	-943.2014160156252	-144.6552124023438	736.2683105468751	-928.467468261719	-187.7454223632813	654.9231567382814	-936.0854492187502	-169.2256317138672	571.6121215820314	-918.7117309570315	-206.5718078613282	437.3623046875001	-887.3640747070315	-283.4959411621094	447.9260864257814	-928.9653930664065	-256.9165649414063	419.3584289550782	-909.5329589843752	-310.9815673828126	365.0203857421876	-869.4797973632815	-454.8677673339845	324.4800415039063	-876.7285156250002	-420.6196594238282	314.4486999511719	-796.2541503906252	-516.8222045898439	342.2094726562501	-814.3467407226565	-395.523895263672	167.0254669189453	-856.0065917968752	-449.2048645019532	183.1720428466797	-897.5271606445315	-297.3607788085938	798.011657714844	-581.4500732421876	-255.3904571533204	750.5923461914064	-591.4333496093751	-281.6449890136719	669.7017211914064	-597.1296997070314	-319.1332702636719	508.9929809570314	-637.5641479492189	-289.2863464355469	331.0754699707032	-711.7802734375001	-346.2016296386719	249.7712860107422	-661.5914306640626	-313.5689086914063	248.5291442871094	-694.9944458007814	-326.4995117187501	212.2479705810547	-739.3613281250001	-390.8978271484376	126.4964752197266	-701.4466552734376	-375.7954711914063	138.130126953125	-775.2680664062502	-456.8839111328126	106.4960479736328	-753.3113403320314	-258.4533386230469	57.70404052734376	-782.9259033203127	-253.0946502685547	59.4419288635254	-737.5451049804689	-292.3273010253907	47.0759506225586	-682.6666870117189	-282.1498718261719	1713.148071289063	-650.4682617187501	-389.5696716308595	171.287826538086	-817.1376953125002	-231.7191772460938	755.1920776367189	-614.8866577148439	
196	0.975	-413.1097106933595	1681.285278320313	-790.5262451171877	-413.7741088867189	1673.815307617188	-650.7967529296876	-438.5542907714845	1497.4326171875	-707.8229980468751	-445.2269897460939	1203.0419921875	-716.8457031250001	-299.6670532226563	1459.2763671875	-718.8444824218751	-363.8162841796876	1505.121948242188	-855.5181884765627	-234.8619689941407	1471.361328125	-916.620300292969	-207.2671966552735	1471.751342773438	-876.0662231445315	-168.9222717285157	1466.656372070313	-922.4724121093752	-99.17664337158206	1428.37353515625	-952.4602661132815	-99.89408111572268	1374.127807617188	-927.6636962890627	144.8086547851563	1473.034423828125	-879.1641235351565	148.7683715820313	1426.046752929688	-925.9224243164065	218.6854553222657	1491.994384765625	-886.951599121094	-342.5105895996094	1490.000854492188	-582.3280029296876	-221.8927154541016	1399.765991210938	-494.4971313476564	-191.1805114746094	1433.95361328125	-516.7188110351564	-154.6167602539063	1394.396850585938	-497.3854370117189	-75.59902954101564	1391.309448242188	-509.3719482421876	-87.09120941162111	1339.552612304688	-540.7495117187501	157.6921539306641	1462.497314453125	-576.6253662109376	174.8239288330078	1405.807983398438	-549.9033203125001	240.3872222900391	1477.601318359375	-567.2070922851564	-274.4599914550782	1018.483703613281	-850.062683105469	-260.8194274902344	1005.54296875	-641.9752807617189	-433.3017578125001	1071.806396484375	-731.5300292968751	-438.0922851562501	1040.308837890625	-761.2943115234376	-432.9727783203126	1038.5498046875	-704.2529296875001	-250.5190124511719	770.8563232421877	-937.926940917969	-185.0027618408203	715.9146118164064	-943.1932373046877	-144.1607208251953	736.4086303710939	-928.4705200195315	-187.1782531738282	655.0540161132814	-936.0062255859377	-168.3417510986328	571.8072509765626	-918.6888427734377	-206.6952819824219	438.0454406738282	-886.9151000976565	-283.3665771484376	449.1534729003907	-928.6223754882815	-256.8804016113282	420.3005371093751	-909.257751464844	-312.0258178710938	366.8976135253907	-868.7172851562502	-456.0849914550782	327.7385864257813	-876.1953735351565	-421.9381713867189	317.6015625000001	-795.5606079101565	-517.8192749023439	346.8183288574219	-813.893737792969	-398.6013488769532	169.3370361328125	-854.8754882812502	-452.2351379394532	186.1671142578125	-896.086608886719	-296.9310302734376	797.9473266601565	-581.3225708007814	-254.9861145019532	750.5798339843751	-591.5217895507814	-281.2908935546876	669.6571044921876	-597.1384277343751	-318.9338073730469	509.1622009277345	-637.5739135742189	-289.1864318847657	331.2724914550782	-711.7219848632814	-346.0589599609376	249.7720489501954	-661.7670898437501	-313.3348388671876	248.4817352294922	-695.1276855468751	-326.3626098632813	212.2455444335938	-739.5374145507814	-390.8548889160157	126.5806503295899	-701.5610351562501	-375.9914550781251	138.2050933837891	-775.1309204101565	-456.938201904297	106.5243225097657	-753.3768310546876	-258.4159240722657	57.5992889404297	-782.9527587890627	-253.0596923828126	59.45418930053712	-737.5336914062501	-292.2640686035157	47.11938858032227	-682.6870727539064	-282.0366210937501	1713.145263671875	-650.1352539062501	-393.0688781738282	173.818832397461	-815.5734863281252	-231.3000793457032	755.1733398437501	-614.9874267578126	
197	0.98	-413.0260314941407	1681.246215820313	-790.3317871093752	-413.5883178710939	1673.734741210938	-650.5308837890626	-438.4847412109376	1497.350463867188	-707.5148315429689	-445.0032958984376	1202.960205078125	-716.6307983398439	-299.5817260742188	1459.224853515625	-718.5939941406251	-363.6154479980469	1505.025756835938	-855.242858886719	-234.6232604980469	1471.281005859375	-916.3531494140627	-207.0627899169922	1471.666015625	-875.7025146484377	-168.5322570800782	1466.59423828125	-922.0812988281252	-98.85438537597659	1428.332641601563	-952.0795898437502	-99.58366394042972	1374.012573242188	-927.3122558593752	145.3154907226563	1472.919555664063	-878.6846313476565	149.0907745361328	1426.141479492188	-925.4119262695315	218.6874694824219	1492.192993164063	-886.4866333007815	-342.3576049804688	1489.88818359375	-582.0601806640626	-221.7951354980469	1399.817504882813	-494.1668395996095	-190.9510955810547	1433.917846679688	-516.4152221679689	-152.3561096191407	1390.411010742188	-493.5244750976564	-75.39684295654298	1391.227172851563	-509.0374145507814	-86.96682739257814	1339.62255859375	-540.3890991210939	157.8494415283203	1462.508056640625	-576.2388305664064	174.9286804199219	1405.840942382813	-549.6224975585939	240.5055541992188	1477.597534179688	-566.9099121093751	-274.2845458984376	1018.496887207031	-849.9610595703127	-260.5539550781251	1005.487365722656	-641.9107055664064	-433.1521301269532	1071.690063476563	-731.3370971679689	-437.9169921875001	1040.148193359375	-761.0627441406251	-432.7526245117189	1038.46728515625	-704.0110473632814	-250.130844116211	770.882019042969	-937.839294433594	-184.4488677978516	715.9914550781251	-943.116638183594	-143.6336059570313	736.6032714843751	-928.4364013671877	-186.5202026367188	655.2073974609376	-935.9827270507815	-167.3523559570313	572.0288085937501	-918.4182739257815	-206.6881561279297	438.7265625000001	-886.4091796875002	-283.2347717285157	450.4552001953126	-928.2829589843752	-257.1303100585938	421.4733276367189	-909.5734863281252	-312.7025756835938	368.7774658203126	-868.4824218750002	-457.289031982422	330.9491577148438	-875.6147460937502	-423.180877685547	320.6817016601563	-794.9341430664065	-518.6122436523439	351.1498413085938	-813.4788208007815	-402.0729064941407	172.2641296386719	-853.2637939453127	-455.5421447753907	189.225082397461	-894.742614746094	-296.5741271972657	797.9092407226565	-581.2802734375001	-254.7010040283204	750.5307006835939	-591.5514526367189	-280.9110412597657	669.5885620117189	-597.1798706054689	-318.5690917968751	509.0003662109376	-637.5518798828126	-288.9299316406251	331.8149414062501	-711.5070800781251	-345.9166259765626	249.7250366210938	-661.7875976562501	-313.1635437011719	248.4180603027344	-695.2719116210939	-326.3369445800782	212.2832336425782	-739.6188354492189	-390.8590087890626	126.6079025268555	-701.7224121093751	-376.0768432617188	138.347412109375	-774.9038696289065	-456.8902587890626	106.5456848144532	-753.4260253906251	-258.4837341308594	57.48349380493165	-783.0028076171877	-253.0749664306641	59.3716506958008	-737.5695190429689	-292.3549804687501	47.20318603515626	-682.7163085937501	-281.9443969726563	1713.358764648438	-650.2947387695314	-396.6817626953126	176.6441040039063	-814.304138183594	-231.0684356689454	755.0866699218751	-615.0874023437501	
198	0.985	-412.8312988281251	1681.175903320313	-790.1298828125002	-413.389373779297	1673.661499023438	-650.3125000000001	-438.3599548339845	1497.286743164063	-707.2391357421876	-444.7187500000001	1202.81982421875	-716.4071044921876	-299.2976074218751	1459.124389648438	-718.3087768554689	-363.4191894531251	1504.898193359375	-854.9790039062502	-234.3621826171876	1471.210327148438	-916.0216064453127	-206.7517242431641	1471.635864257813	-875.3347167968752	-168.332504272461	1466.511474609375	-921.7617187500002	-98.57301330566409	1428.24658203125	-951.6905517578127	-99.27254486083987	1373.962524414063	-926.8868408203127	145.6101837158203	1473.000610351563	-878.270202636719	149.2203063964844	1426.213989257813	-925.0024414062502	219.3309936523438	1492.224487304688	-885.973815917969	-342.3401489257813	1489.977416992188	-581.7615356445314	-221.6293487548829	1399.79931640625	-493.9375000000001	-190.9495239257813	1433.977783203125	-516.1557006835939	-153.1229705810547	1395.176391601563	-496.4922180175782	-74.92375946044923	1391.748779296875	-508.8550109863282	-86.87053680419923	1339.618774414063	-540.0128784179689	158.0684661865235	1462.532348632813	-575.8427124023439	174.9991912841797	1405.768188476563	-549.2296142578126	240.7301788330079	1477.592895507813	-566.1663818359376	-274.0976257324219	1018.433044433594	-849.8492431640627	-260.3274536132813	1005.404235839844	-641.7422485351564	-432.7566528320314	1071.59912109375	-731.1300048828126	-437.5942993164064	1040.059814453125	-760.8213500976564	-432.4539794921876	1038.338989257813	-703.7666015625001	-249.7206115722657	770.936218261719	-937.6656494140627	-184.0188446044922	716.1363525390626	-943.0401611328127	-143.1345672607422	736.7219238281251	-928.414733886719	-185.8823852539063	655.3045654296876	-935.8378906250002	-166.5706634521485	572.3468627929689	-918.234802246094	-206.8408203125001	439.482391357422	-885.9562988281252	-283.3372802734376	451.6459350585939	-928.0238037109377	-257.6771240234376	422.6871337890626	-908.7371215820315	-313.8393859863282	370.6837158203126	-867.223327636719	-458.299285888672	333.9883117675782	-875.0000610351565	-424.3930664062501	323.8480834960938	-794.2795410156252	-519.2470092773439	355.2958984375001	-813.0173950195315	-405.3976135253907	174.5956420898438	-851.7722167968752	-458.7383728027345	192.2579345703126	-893.4393310546877	-296.1250305175782	797.744567871094	-581.1320190429689	-253.6631469726563	750.1524658203126	-591.5467529296876	-280.4845886230469	669.5081787109376	-597.2239379882814	-318.4547729492188	509.0480041503907	-637.5721435546876	-289.3455200195313	330.9319152832032	-711.9466552734376	-345.6807250976563	249.6683044433594	-661.8624877929689	-312.9874572753907	248.369857788086	-695.4135131835939	-326.2425537109376	212.2510375976563	-739.7689208984376	-390.8816223144532	126.6791000366211	-701.8182983398439	-376.2322692871094	138.3791961669922	-774.8958129882815	-456.8866271972657	106.5588912963867	-753.4481201171876	-258.4664001464844	57.33967590332033	-782.9934082031252	-253.1191558837891	59.31063079833986	-737.6553344726564	-292.2343750000001	47.17121887207032	-682.7161865234376	-281.7418518066407	1713.094482421875	-649.9432373046876	-399.435272216797	178.9314117431641	-812.9071044921877	-230.3816833496094	755.1096191406251	-615.0204467773439	
